<svg xmlns="http://www.w3.org/2000/svg" viewBox="0 0 1081.44 265.26"><defs><style>.cls-1{fill:#33f;}.cls-2{fill:#d2ccff;}.cls-3{fill:#ccf;}.cls-4{fill:#4340ff;}</style></defs><g id="OBJECTS"><polygon class="cls-1" points="20.43 162.3 185.71 105.94 179.9 262.68 43.03 265.26 20.43 162.3"/><polygon class="cls-2" points="163.44 113.4 153.83 141.62 131.96 146.64 140.04 121.4 163.44 113.4"/><polygon class="cls-2" points="47.65 152.99 42.7 167.2 22.52 171.84 20.43 162.29 47.65 152.99"/><polygon class="cls-2" points="108.52 132.18 101.39 153.69 71.91 160.47 78.43 142.46 108.52 132.18"/><polygon class="cls-1" points="12.76 126.89 51.86 138.28 77.62 117.17 33.74 107.22 12.76 126.89"/><polygon class="cls-1" points="160.11 49.39 148.49 0 106.93 38.9 152.85 55.23 160.11 49.39"/><polygon class="cls-1" points="134.8 70.1 83.84 60.43 57.09 85.47 97.87 100.39 134.8 70.1"/><polygon class="cls-3" points="134.18 70.73 153.69 54.67 107.73 38.1 83.51 60.75 134.18 70.73"/><polygon class="cls-3" points="57.57 84.99 33.03 107.92 77.06 117.73 103.8 95.73 57.57 84.99"/><polygon class="cls-3" points="0 138.81 20.95 164.67 24.68 160.83 52.71 137.77 12.99 126.66 0 138.81"/><path class="cls-4" d="M358.86,271.56V176.07h24.55l12,47.08,8.26,33a75.08,75.08,0,0,1,2.23,9.37l1.11,4.46,2-8.26a155.48,155.48,0,0,1,4.24-17l5.36-21.64,11.6-47.08h25.66V332.25H430.7V251.93l-4.46,21.64L414,332.25H400.14l-8.48-40.16-8.25-40.16v80.32H358.86Z" transform="translate(-136.14 -69.17)"/><path class="cls-4" d="M488.15,329.12a31.87,31.87,0,0,1-11.71-12.05A32.34,32.34,0,0,1,472.2,301V206.19a32.4,32.4,0,0,1,32.57-32.57A31.44,31.44,0,0,1,521.06,178a33,33,0,0,1,16.06,28.22V301a31.74,31.74,0,0,1-4.46,16.62,32.53,32.53,0,0,1-27.89,15.95A31.74,31.74,0,0,1,488.15,329.12Zm22-22.75a7.35,7.35,0,0,0,2.23-5.36V206.19a7.59,7.59,0,0,0-15.17,0V301a7.57,7.57,0,0,0,12.94,5.36Z" transform="translate(-136.14 -69.17)"/><path class="cls-4" d="M563.67,289.63,559,254.16l-4.91-36.59-5.58-41.5h25l4.24,42.84L582,261.74l4.24-42.83,4.23-42.84h25l-5.8,42.61L605,254.16l-2.23,17.4-8.26,60.69h-25Z" transform="translate(-136.14 -69.17)"/><path class="cls-4" d="M625.47,271.56V176.07h25V332.25h-25Z" transform="translate(-136.14 -69.17)"/><path class="cls-4" d="M666.52,270.89V176.07h56.23v25H691.51v38.82h23.65v25H691.51v42.39h31.24v25H666.52Z" transform="translate(-136.14 -69.17)"/><path class="cls-4" d="M747.84,326.67q-7.25-7.14-7.25-18.07a44.69,44.69,0,0,1,.9-7.14l6.69-29h25l-6.7,29a6,6,0,0,0,1,5.24,5.72,5.72,0,0,0,4.79,2.12A8.69,8.69,0,0,0,778,306.7a9.15,9.15,0,0,0,3.24-5.24l3.57-14.95a18,18,0,0,0-3.13-14.73,112.41,112.41,0,0,0-10.26-12.71q-5.58-6.7-6.47-7.81-5.8-7.81-5.8-19.64A55.75,55.75,0,0,1,760.9,218l2.67-11.37a40,40,0,0,1,8-16.18,44.58,44.58,0,0,1,14.51-11.82,37.24,37.24,0,0,1,17.18-4.35q11.37,0,18.63,7.14t7.25,18.07a44.69,44.69,0,0,1-.9,7.14l-6.69,29h-25l6.7-29a6,6,0,0,0-1-5.25,5.75,5.75,0,0,0-4.8-2.12,8.7,8.7,0,0,0-5.68,2.12,9.15,9.15,0,0,0-3.24,5.25l-3.79,15.84a11.81,11.81,0,0,0-.22,2.67q0,5.35,4.9,12,4,5.36,6.7,8.26c.59.59,1.89,2.12,3.9,4.57a50.42,50.42,0,0,1,4.8,6.8,42.33,42.33,0,0,1,5.35,21,63.63,63.63,0,0,1-1.78,14.05q-.9,4.47-1.56,6.7a46,46,0,0,1-8.48,18.18,45.1,45.1,0,0,1-14.62,12.6,36.22,36.22,0,0,1-17.29,4.47Q755.1,333.81,747.84,326.67Z" transform="translate(-136.14 -69.17)"/><path class="cls-4" d="M826.26,271.56l4-17.4q5.36-23.65,8.26-35.48,4.9-21.63,8.25-35.69l1.56-6.92h31q11.61,0,18.75,7.25a24.91,24.91,0,0,1,7.13,18.18,27.76,27.76,0,0,1-.89,7.14l-8,34.81a39.14,39.14,0,0,1-8.14,16.4,45.94,45.94,0,0,1-14.62,11.82,37.68,37.68,0,0,1-17.4,4.35h-6L837.2,332.25h-25Zm34.81-17.4a9.3,9.3,0,0,0,5.91-2.23,10.42,10.42,0,0,0,3.68-5.58l8.7-37.48a6.39,6.39,0,0,0-1.11-5.47,5.84,5.84,0,0,0-4.91-2.34h-5.8q-3.57,15.62-6.25,26.55l-6,26.55Z" transform="translate(-136.14 -69.17)"/><path class="cls-4" d="M903,271.56l4-17.4q5.36-23.43,8.25-35.48,5.13-23.19,9.82-42.61h25L942.72,208l-1.78,7.8q-4.47,19.2-5.58,24.1h17.4l7.37-31.9,7.36-31.91h25l-9.82,42.61-8.25,35.48q-2.68,10.71-4,17.4l-14.06,60.69h-25q9.14-39.72,15.61-67.38h-17.4q-6.46,27.66-15.62,67.38H889Z" transform="translate(-136.14 -69.17)"/><path class="cls-4" d="M987.12,270.89l4-16.73q5.36-23.65,8.25-35.48,1.35-6.47,4.46-19.41l5.36-23.2h56.22l-1.11,4.91q-.9,3.35-2.12,8.37t-2.57,11.71H1028.4q-3.14,12.94-4.47,19.41-3.12,12.94-4.46,19.41h23.65q-4,16.51-5.8,25h-23.65l-9.82,42.39h31.24l-5.8,25H973.07Z" transform="translate(-136.14 -69.17)"/><path class="cls-4" d="M1058.51,271.56l4-17.4,8.26-35.48,9.81-42.61h31q11.61,0,18.74,7.25a24.88,24.88,0,0,1,7.14,18.18,27.76,27.76,0,0,1-.89,7.14l-6,25.66a41.68,41.68,0,0,1-5.25,12.38,42.86,42.86,0,0,1-9,10.38,12,12,0,0,1,5.24,4.57,13,13,0,0,1,1.9,7,27.16,27.16,0,0,1-.45,3.57l-9.14,39.94a88.21,88.21,0,0,0-2.24,20.08h-25a88.21,88.21,0,0,1,2.23-20.08l8.7-38.16a6.25,6.25,0,0,0-.78-5.13,5,5,0,0,0-4.35-2h-7.81l-15.17,65.37h-25ZM1095.1,245a11.64,11.64,0,0,0,7.25-2.68,11.38,11.38,0,0,0,4.36-6.47q4.45-20.07,6.24-27a6.39,6.39,0,0,0-1.11-5.47,5.85,5.85,0,0,0-4.91-2.34h-7.14q-1.79,7.59-4.24,18.52l-6,25.43Z" transform="translate(-136.14 -69.17)"/><path class="cls-4" d="M1139.28,270.89l4-16.73q5.36-23.65,8.26-35.48,1.34-6.47,4.46-19.41l5.36-23.2h56.22l-1.12,4.91q-.88,3.35-2.12,8.37t-2.56,11.71h-31.24q-3.12,12.94-4.46,19.41-3.12,12.94-4.46,19.41h23.65q-4,16.51-5.8,25h-23.65L1156,307.26h31.24l-5.8,25h-56.23Z" transform="translate(-136.14 -69.17)"/></g></svg>